<svg width="948" height="304" viewBox="0 0 948 304" fill="none" xmlns="http://www.w3.org/2000/svg">
<path fill-rule="evenodd" clip-rule="evenodd" d="M259.443 130.431C263.652 153.598 261.524 176.841 251.426 197.277L235.772 184.615C241.975 168.053 243.928 152.6 239.745 135.155C235.561 117.709 224.999 102.46 210.138 92.4097C195.277 82.3592 177.193 78.2345 159.444 80.8472C141.694 83.4599 125.566 92.6208 114.231 106.527C102.897 120.434 97.1769 138.079 98.1979 155.99C99.2188 173.902 106.906 190.783 119.748 203.311C132.589 215.84 149.654 223.108 167.585 223.687C185.516 224.266 202.188 215.674 212.588 207.246L229.819 221.821C212.354 236.788 189.92 244.676 166.931 243.934C143.943 243.192 122.064 233.873 105.601 217.811C89.138 201.748 79.2824 180.106 77.9735 157.143C76.6646 134.18 83.9974 111.558 98.5289 93.7291C113.06 75.9003 133.738 64.1556 156.494 60.806C179.249 57.4564 202.434 62.7445 221.487 75.6297C240.539 88.5149 254.08 108.064 259.443 130.431ZM147.345 167.945L188.597 203.544L202.504 187.222L243.051 221.239L234.354 231.458L274.734 237.981L262.123 198.751L252.838 209.753L198.991 164.404L186.114 179.517L158.161 155.25L147.345 167.945Z" fill="url(#paint0_linear_14_72)"/>
<path d="M316.976 232.152C309.104 232.152 302.096 230.424 295.952 226.968C289.904 223.416 285.152 218.472 281.696 212.136C278.24 205.8 276.512 198.408 276.512 189.96V135.672H287.312V190.248C287.312 197.64 288.704 203.64 291.488 208.248C294.368 212.856 298.064 216.264 302.576 218.472C307.184 220.584 311.984 221.64 316.976 221.64C322.064 221.64 326.864 220.584 331.376 218.472C335.888 216.264 339.584 212.856 342.464 208.248C345.344 203.64 346.784 197.64 346.784 190.248V135.672H357.584V189.96C357.584 198.312 355.856 205.656 352.4 211.992C348.944 218.328 344.144 223.272 338 226.824C331.952 230.376 324.944 232.152 316.976 232.152ZM365.01 231L405.474 135.672H419.01L459.474 231H447.522L435.858 203.352H388.626L376.962 231H365.01ZM392.802 193.416H431.682L412.242 146.904L392.802 193.416ZM471.586 231V135.672H484.114L543.01 215.88V135.672H553.81V231H541.282L482.386 150.504V231H471.586ZM600.811 231V145.896H567.547V135.672H644.875V145.896H611.611V231H600.811Z" fill="url(#paint1_linear_14_72)"/>
<path d="M790.664 233V137.672H833.576C843.752 137.672 851.768 140.456 857.624 146.024C863.48 151.496 866.408 158.936 866.408 168.344C866.408 177.752 863.48 185.24 857.624 190.808C851.768 196.28 843.752 199.016 833.576 199.016H801.464V233H790.664ZM801.464 188.936H832.856C840.344 188.936 846.008 187.112 849.848 183.464C853.688 179.816 855.608 174.776 855.608 168.344C855.608 162.008 853.688 157.016 849.848 153.368C846.008 149.72 840.344 147.896 832.856 147.896H801.464V188.936Z" fill="url(#paint2_linear_14_72)"/>
<path fill-rule="evenodd" clip-rule="evenodd" d="M675.658 212.35L717.327 150.56L735.161 162.436L767.269 114.217L756.113 106.78L793.13 89.453L791.755 130.604L779.819 122.574L738.035 185.324L721.522 174.328L689.643 222.085C696.09 225.104 703.278 226.789 710.857 226.789C738.674 226.789 761.224 204.084 761.224 176.077C761.224 171.957 760.736 167.952 759.815 164.117L769.652 149.008C773.541 157.335 775.713 166.624 775.713 176.422C775.713 212.241 746.676 241.278 710.857 241.278C675.037 241.278 646 212.241 646 176.422C646 140.602 675.037 111.565 710.857 111.565C726.057 111.565 740.035 116.794 751.092 125.551L743.398 137.368C734.621 129.88 723.262 125.364 710.857 125.364C683.039 125.364 660.489 148.069 660.489 176.077C660.489 190.293 666.299 203.142 675.658 212.35Z" fill="url(#paint3_linear_14_72)"/>
<defs>
<linearGradient id="paint0_linear_14_72" x1="178" y1="127.5" x2="178" y2="244" gradientUnits="userSpaceOnUse">
<stop stop-color="#E2E2E2"/>
<stop offset="1" stop-color="#C4C4C4"/>
</linearGradient>
<linearGradient id="paint1_linear_14_72" x1="460.694" y1="135.672" x2="460.694" y2="232.152" gradientUnits="userSpaceOnUse">
<stop stop-color="#E2E2E2"/>
<stop offset="1" stop-color="#C4C4C4"/>
</linearGradient>
<linearGradient id="paint2_linear_14_72" x1="824.5" y1="115" x2="824.5" y2="263" gradientUnits="userSpaceOnUse">
<stop stop-color="#E2E2E2"/>
<stop offset="1" stop-color="#C4C4C4"/>
</linearGradient>
<linearGradient id="paint3_linear_14_72" x1="720" y1="137" x2="719.565" y2="241.278" gradientUnits="userSpaceOnUse">
<stop stop-color="#E2E2E2"/>
<stop offset="1" stop-color="#C4C4C4"/>
</linearGradient>
</defs>
</svg>
